<?xml version="1.0" encoding="utf-8"?>
<!-- Generator: Adobe Illustrator 26.0.2, SVG Export Plug-In . SVG Version: 6.00 Build 0)  -->
<svg version="1.1" xmlns="http://www.w3.org/2000/svg" xmlns:xlink="http://www.w3.org/1999/xlink" x="0px" y="0px"
	 viewBox="0 0 1601.73 300" style="enable-background:new 0 0 1601.73 300;" xml:space="preserve">
<symbol  id="logo_symbol" viewBox="-124.48 0 248.96 321.35">
	<g>
		<g>
			<path d="M105.04,188.38c0.38,0.55,0.76,1.09,1.12,1.65c7.65,11.77,11.48,25.97,11.48,42.6c0,28.84-10.78,50.83-32.33,65.99
				c-21.56,15.15-53.01,22.73-94.35,22.73h-115.43V189.57l117.25-28.16L105.04,188.38z M111.02,139.27
				c-0.03,0.04-0.06,0.07-0.09,0.11L-4.24,111.72c-0.98-0.24-1.99-0.35-3-0.35c-1.01,0-2.02,0.12-3,0.35l-114.24,27.44V0H5.96
				C45.1,0.29,74.63,8.35,94.57,24.17c19.94,15.81,29.91,39.47,29.91,70.96C124.48,112.48,119.99,127.2,111.02,139.27z"/>
		</g>
	</g>
</symbol>
<g id="Baseless">
	<g>
		
			<use xlink:href="#logo_symbol"  width="248.96" height="321.35" x="-124.48" transform="matrix(0.9326 0 0 -0.9326 116.9519 299.8372)" style="overflow:visible;"/>
		<path d="M380.53,299.84c-2.34-4.29-4.42-14.83-6.24-23.14c-12.08,15.2-28.97,22.8-50.67,22.8c-19.88,0-36.77-6.01-50.67-18.03
			c-13.9-12.02-20.85-27.12-20.85-45.31c0-22.86,8.44-40.14,25.33-51.84c16.89-11.69,41.44-14.63,73.66-14.63h20.27v-14.07
			c0-19.45-8.38-29.18-25.14-29.18c-15.59,0-23.39,7.7-23.39,23.11h-65.67c0-20.37,8.67-36.92,26.02-49.63
			c17.34-12.72,39.46-19.08,66.36-19.08c26.89,0,48.13,6.56,63.72,19.68c15.59,13.12,23.58,31.12,23.97,53.98v93.35
			c0.26,19.36,3.25,34.17,8.96,44.43v7.55H380.53z M339.41,252.72c8.19,0,14.97-1.75,20.36-5.26c5.39-3.51,9.26-7.47,11.6-11.89
			v-33.71h-19.1c-22.87,0-34.3,10.27-34.3,30.79c0,5.98,2.01,10.82,6.04,14.52C328.04,250.87,333.17,252.72,339.41,252.72z"/>
		<path d="M583.98,236.35c0-5.58-2.92-10.07-8.77-13.45c-5.85-3.38-16.95-6.88-33.32-10.52c-16.37-3.64-29.88-8.41-40.54-14.32
			c-10.65-5.91-18.77-13.09-24.36-21.53c-5.59-8.44-8.38-18.12-8.38-29.04c0-19.36,7.99-35.3,23.97-47.84
			c15.98-12.54,36.9-18.81,62.75-18.81c27.8,0,50.15,6.3,67.04,18.9c16.89,12.6,25.33,29.17,25.33,49.69h-65.87
			c0-16.89-8.9-25.33-26.7-25.33c-6.89,0-12.67,1.92-17.34,5.75c-4.68,3.83-7.02,8.61-7.02,14.32c0,5.85,2.86,10.59,8.57,14.23
			c5.72,3.64,14.84,6.63,27.38,8.96c12.54,2.34,23.55,5.13,33.03,8.38c31.7,10.91,47.55,30.47,47.55,58.66
			c0,19.23-8.54,34.88-25.63,46.97c-17.09,12.08-39.2,18.12-66.36,18.12c-18.06,0-34.17-3.25-48.33-9.74
			c-14.16-6.49-25.21-15.33-33.13-26.5c-7.93-11.17-11.89-22.93-11.89-35.27h61.39c0.26,9.74,3.51,16.86,9.74,21.34
			c6.24,4.48,14.23,6.72,23.97,6.72c8.96,0,15.69-1.82,20.17-5.46C581.74,246.95,583.98,242.2,583.98,236.35z"/>
		<path d="M780.03,299.5c-32.35,0-58.53-9.65-78.54-28.94c-20.01-19.29-30.01-44.4-30.01-75.32v-5.46c0-21.56,4-40.6,11.99-57.1
			c7.99-16.5,19.65-29.26,34.98-38.29c15.33-9.03,33.52-13.54,54.57-13.54c29.62,0,53.01,9.19,70.16,27.58
			c17.15,18.39,25.72,44.01,25.72,76.88v25.53H738.32c2.34,11.82,7.47,21.11,15.4,27.87c7.92,6.76,18.19,10.13,30.79,10.13
			c20.78,0,37.03-7.27,48.72-21.83l30.01,35.47c-8.18,11.3-19.78,20.3-34.79,26.99C813.45,296.15,797.31,299.5,780.03,299.5z
			 M772.62,131.51c-19.23,0-30.66,12.73-34.3,38.2h66.26v-5.07c0.26-10.52-2.41-18.68-7.99-24.46
			C791.01,134.4,783.02,131.51,772.62,131.51z"/>
		<path d="M964.58,299.5h-65.87V0.16h65.87V299.5z"/>
		<path d="M1107.03,299.5c-32.35,0-58.53-9.65-78.54-28.94c-20.01-19.29-30.01-44.4-30.01-75.32v-5.46c0-21.56,4-40.6,11.99-57.1
			c7.99-16.5,19.65-29.26,34.98-38.29c15.33-9.03,33.52-13.54,54.57-13.54c29.62,0,53.01,9.19,70.16,27.58
			c17.15,18.39,25.72,44.01,25.72,76.88v25.53h-130.57c2.34,11.82,7.47,21.11,15.4,27.87c7.92,6.76,18.19,10.13,30.79,10.13
			c20.78,0,37.03-7.27,48.72-21.83l30.01,35.47c-8.18,11.3-19.78,20.3-34.79,26.99C1140.46,296.15,1124.31,299.5,1107.03,299.5z
			 M1099.63,131.51c-19.23,0-30.66,12.73-34.3,38.2h66.26v-5.07c0.26-10.52-2.41-18.68-7.99-24.46
			C1118.01,134.4,1110.02,131.51,1099.63,131.51z"/>
		<path d="M1332.7,236.35c0-5.58-2.92-10.07-8.77-13.45c-5.85-3.38-16.95-6.88-33.32-10.52c-16.37-3.64-29.88-8.41-40.54-14.32
			c-10.65-5.91-18.77-13.09-24.36-21.53c-5.59-8.44-8.38-18.12-8.38-29.04c0-19.36,7.99-35.3,23.97-47.84
			c15.98-12.54,36.9-18.81,62.75-18.81c27.8,0,50.15,6.3,67.04,18.9c16.89,12.6,25.33,29.17,25.33,49.69h-65.87
			c0-16.89-8.9-25.33-26.7-25.33c-6.89,0-12.67,1.92-17.34,5.75c-4.68,3.83-7.02,8.61-7.02,14.32c0,5.85,2.86,10.59,8.57,14.23
			c5.72,3.64,14.84,6.63,27.38,8.96c12.54,2.34,23.55,5.13,33.03,8.38c31.7,10.91,47.55,30.47,47.55,58.66
			c0,19.23-8.54,34.88-25.63,46.97c-17.09,12.08-39.2,18.12-66.36,18.12c-18.06,0-34.17-3.25-48.33-9.74
			c-14.16-6.49-25.21-15.33-33.13-26.5c-7.93-11.17-11.89-22.93-11.89-35.27h61.39c0.26,9.74,3.51,16.86,9.74,21.34
			c6.24,4.48,14.23,6.72,23.97,6.72c8.96,0,15.69-1.82,20.17-5.46C1330.46,246.95,1332.7,242.2,1332.7,236.35z"/>
		<path d="M1537.13,236.35c0-5.58-2.92-10.07-8.77-13.45c-5.85-3.38-16.95-6.88-33.32-10.52c-16.37-3.64-29.88-8.41-40.54-14.32
			c-10.65-5.91-18.77-13.09-24.36-21.53c-5.59-8.44-8.38-18.12-8.38-29.04c0-19.36,7.99-35.3,23.97-47.84
			c15.98-12.54,36.9-18.81,62.75-18.81c27.8,0,50.15,6.3,67.04,18.9c16.89,12.6,25.33,29.17,25.33,49.69h-65.87
			c0-16.89-8.9-25.33-26.7-25.33c-6.89,0-12.67,1.92-17.34,5.75c-4.68,3.83-7.02,8.61-7.02,14.32c0,5.85,2.86,10.59,8.57,14.23
			c5.72,3.64,14.84,6.63,27.38,8.96c12.54,2.34,23.55,5.13,33.03,8.38c31.7,10.91,47.55,30.47,47.55,58.66
			c0,19.23-8.54,34.88-25.63,46.97c-17.09,12.08-39.2,18.12-66.36,18.12c-18.06,0-34.17-3.25-48.33-9.74
			c-14.16-6.49-25.21-15.33-33.13-26.5c-7.93-11.17-11.89-22.93-11.89-35.27h61.39c0.26,9.74,3.51,16.86,9.74,21.34
			c6.24,4.48,14.23,6.72,23.97,6.72c8.96,0,15.69-1.82,20.17-5.46C1534.89,246.95,1537.13,242.2,1537.13,236.35z"/>
	</g>
</g>
<g id="B">
</g>
</svg>
