<?xml version="1.0" encoding="utf-8"?>
<!-- Generator: Adobe Illustrator 26.0.2, SVG Export Plug-In . SVG Version: 6.00 Build 0)  -->
<svg version="1.1" xmlns="http://www.w3.org/2000/svg" xmlns:xlink="http://www.w3.org/1999/xlink" x="0px" y="0px"
	 viewBox="0 0 300 300" style="enable-background:new 0 0 300 300;" xml:space="preserve">
<style type="text/css">
	.st0{fill:#3DC3CC;stroke:#000000;stroke-miterlimit:10;}
	.st1{fill:#FFFFFF;}
</style>
<symbol  id="logo_symbol" viewBox="-124.48 0 248.96 321.35">
	<g>
		<g>
			<path d="M105.04,188.38c0.38,0.55,0.76,1.09,1.12,1.65c7.65,11.77,11.48,25.97,11.48,42.6c0,28.84-10.78,50.83-32.33,65.99
				c-21.56,15.15-53.01,22.73-94.35,22.73h-115.43V189.57l117.25-28.16L105.04,188.38z M111.02,139.27
				c-0.03,0.04-0.06,0.07-0.09,0.11L-4.24,111.72c-0.98-0.24-1.99-0.35-3-0.35c-1.01,0-2.02,0.12-3,0.35l-114.24,27.44V0H5.96
				C45.1,0.29,74.63,8.35,94.57,24.17c19.94,15.81,29.91,39.47,29.91,70.96C124.48,112.48,119.99,127.2,111.02,139.27z"/>
		</g>
	</g>
</symbol>
<g id="Baseless">
</g>
<g id="B">
</g>
<g id="Profile_picture">
	<rect x="0.87" class="st0" width="299.13" height="299.13"/>
	<g id="XMLID_00000121276508992602885030000007355702687013770394_">
		<g>
			<g>
				<g>
					<path d="M204.07,136.79c0.18-0.26,0.36-0.52,0.53-0.79c3.65-5.61,5.47-12.38,5.47-20.3c0-13.75-5.14-24.23-15.41-31.46
						c-10.28-7.22-25.27-10.84-44.97-10.84H94.67v62.81l55.89,13.42L204.07,136.79z M206.92,160.2c-0.01-0.02-0.03-0.04-0.04-0.05
						l-54.89,13.18c-0.47,0.11-0.95,0.17-1.43,0.17c-0.48,0-0.96-0.06-1.43-0.17l-54.46-13.08v66.33h62.17
						c18.65-0.14,32.73-3.98,42.24-11.52c9.5-7.54,14.26-18.81,14.26-33.82C213.33,172.97,211.19,165.96,206.92,160.2z"/>
				</g>
				<g>
					<path class="st1" d="M204.07,136.79c0.18-0.26,0.36-0.52,0.53-0.79c3.65-5.61,5.47-12.38,5.47-20.3
						c0-13.75-5.14-24.23-15.41-31.46c-10.28-7.22-25.27-10.84-44.97-10.84H94.67v62.81l55.89,13.42L204.07,136.79z M206.92,160.2
						c-0.01-0.02-0.03-0.04-0.04-0.05l-54.89,13.18c-0.47,0.11-0.95,0.17-1.43,0.17c-0.48,0-0.96-0.06-1.43-0.17l-54.46-13.08v66.33
						h62.17c18.65-0.14,32.73-3.98,42.24-11.52c9.5-7.54,14.26-18.81,14.26-33.82C213.33,172.97,211.19,165.96,206.92,160.2z"/>
				</g>
			</g>
		</g>
	</g>
</g>
</svg>
