<?xml version="1.0" encoding="utf-8"?>
<!-- Generator: Adobe Illustrator 26.0.2, SVG Export Plug-In . SVG Version: 6.00 Build 0)  -->
<svg version="1.1" xmlns="http://www.w3.org/2000/svg" xmlns:xlink="http://www.w3.org/1999/xlink" x="0px" y="0px"
	 viewBox="0 0 1601.73 300" style="enable-background:new 0 0 1601.73 300;" xml:space="preserve">
<style type="text/css">
	.st0{fill:#3DC3CC;stroke:#000000;stroke-miterlimit:10;}
	.st1{fill:#FFFFFF;}
</style>
<symbol  id="logo_symbol" viewBox="-124.48 0 248.96 321.35">
	<g>
		<g>
			<path d="M105.04,188.38c0.38,0.55,0.76,1.09,1.12,1.65c7.65,11.77,11.48,25.97,11.48,42.6c0,28.84-10.78,50.83-32.33,65.99
				c-21.56,15.15-53.01,22.73-94.35,22.73h-115.43V189.57l117.25-28.16L105.04,188.38z M111.02,139.27
				c-0.03,0.04-0.06,0.07-0.09,0.11L-4.24,111.72c-0.98-0.24-1.99-0.35-3-0.35c-1.01,0-2.02,0.12-3,0.35l-114.24,27.44V0H5.96
				C45.1,0.29,74.63,8.35,94.57,24.17c19.94,15.81,29.91,39.47,29.91,70.96C124.48,112.48,119.99,127.2,111.02,139.27z"/>
		</g>
	</g>
</symbol>
<symbol  id="logotype" viewBox="-799.99 -149.84 1599.99 299.67">
	<g>
		
			<use xlink:href="#logo_symbol"  width="248.96" height="321.35" x="-124.48" transform="matrix(0.9326 0 0 0.9326 -683.9108 -149.8372)" style="overflow:visible;"/>
		<path d="M-420.34-149.84c-2.34,4.29-4.42,14.83-6.24,23.14c-12.08-15.2-28.97-22.8-50.67-22.8c-19.88,0-36.77,6.01-50.67,18.03
			c-13.9,12.02-20.85,27.12-20.85,45.31c0,22.86,8.44,40.14,25.33,51.84c16.89,11.69,41.44,14.63,73.66,14.63h20.27v14.07
			c0,19.45-8.38,29.18-25.14,29.18c-15.59,0-23.39-7.7-23.39-23.11h-65.67c0,20.37,8.67,36.92,26.02,49.63
			c17.34,12.72,39.46,19.08,66.36,19.08c26.89,0,48.13-6.56,63.72-19.68c15.59-13.12,23.58-31.12,23.97-53.98v-93.35
			c0.26-19.36,3.25-34.17,8.96-44.43v-7.55H-420.34z M-461.45-102.72c8.19,0,14.97,1.75,20.36,5.26c5.39,3.51,9.26,7.47,11.6,11.89
			v33.71h-19.1c-22.87,0-34.3-10.27-34.3-30.79c0-5.98,2.01-10.82,6.04-14.52C-472.82-100.87-467.69-102.72-461.45-102.72z"/>
		<path d="M-216.88-86.35c0,5.58-2.92,10.07-8.77,13.45c-5.85,3.38-16.95,6.88-33.32,10.52c-16.37,3.64-29.88,8.41-40.54,14.32
			c-10.65,5.91-18.77,13.09-24.36,21.53c-5.59,8.44-8.38,18.12-8.38,29.04c0,19.36,7.99,35.3,23.97,47.84
			c15.98,12.54,36.9,18.81,62.75,18.81c27.8,0,50.15-6.3,67.04-18.9c16.89-12.6,25.33-29.17,25.33-49.69h-65.87
			c0,16.89-8.9,25.33-26.7,25.33c-6.89,0-12.67-1.92-17.34-5.75c-4.68-3.83-7.02-8.61-7.02-14.32c0-5.85,2.86-10.59,8.57-14.23
			c5.72-3.64,14.84-6.63,27.38-8.96c12.54-2.34,23.55-5.13,33.03-8.38c31.7-10.91,47.55-30.47,47.55-58.66
			c0-19.23-8.54-34.88-25.63-46.97c-17.09-12.08-39.2-18.12-66.36-18.12c-18.06,0-34.17,3.25-48.33,9.74
			c-14.16,6.49-25.21,15.33-33.13,26.5c-7.93,11.17-11.89,22.93-11.89,35.27h61.39c0.26-9.74,3.51-16.86,9.74-21.34
			c6.24-4.48,14.23-6.72,23.97-6.72c8.96,0,15.69,1.82,20.17,5.46C-219.12-96.95-216.88-92.2-216.88-86.35z"/>
		<path d="M-20.83-149.5c-32.35,0-58.53,9.65-78.54,28.94c-20.01,19.29-30.01,44.4-30.01,75.32v5.46c0,21.56,4,40.6,11.99,57.1
			c7.99,16.5,19.65,29.26,34.98,38.29c15.33,9.03,33.52,13.54,54.57,13.54c29.62,0,53.01-9.19,70.16-27.58
			C59.46,23.2,68.03-2.43,68.03-35.3v-25.53H-62.54c2.34-11.82,7.47-21.11,15.4-27.87c7.92-6.76,18.19-10.13,30.79-10.13
			c20.78,0,37.03,7.27,48.72,21.83l30.01-35.47c-8.18-11.3-19.78-20.3-34.79-26.99C12.59-146.15-3.56-149.5-20.83-149.5z
			 M-28.24,18.49c-19.23,0-30.66-12.73-34.3-38.2H3.72v5.07C3.98-4.12,1.31,4.03-4.27,9.82C-9.86,15.6-17.85,18.49-28.24,18.49z"/>
		<path d="M163.72-149.5H97.85v299.33h65.87V-149.5z"/>
		<path d="M306.17-149.5c-32.35,0-58.53,9.65-78.54,28.94c-20.01,19.29-30.01,44.4-30.01,75.32v5.46c0,21.56,4,40.6,11.99,57.1
			c7.99,16.5,19.65,29.26,34.98,38.29c15.33,9.03,33.52,13.54,54.57,13.54c29.62,0,53.01-9.19,70.16-27.58
			c17.15-18.39,25.72-44.01,25.72-76.88v-25.53H264.47c2.34-11.82,7.47-21.11,15.4-27.87c7.92-6.76,18.19-10.13,30.79-10.13
			c20.78,0,37.03,7.27,48.72,21.83l30.01-35.47c-8.18-11.3-19.78-20.3-34.79-26.99C339.59-146.15,323.45-149.5,306.17-149.5z
			 M298.77,18.49c-19.23,0-30.66-12.73-34.3-38.2h66.26v5.07c0.26,10.52-2.41,18.68-7.99,24.46
			C317.15,15.6,309.16,18.49,298.77,18.49z"/>
		<path d="M531.84-86.35c0,5.58-2.92,10.07-8.77,13.45c-5.85,3.38-16.95,6.88-33.32,10.52c-16.37,3.64-29.88,8.41-40.54,14.32
			c-10.65,5.91-18.77,13.09-24.36,21.53c-5.59,8.44-8.38,18.12-8.38,29.04c0,19.36,7.99,35.3,23.97,47.84
			c15.98,12.54,36.9,18.81,62.75,18.81c27.8,0,50.15-6.3,67.04-18.9c16.89-12.6,25.33-29.17,25.33-49.69H529.7
			c0,16.89-8.9,25.33-26.7,25.33c-6.89,0-12.67-1.92-17.34-5.75c-4.68-3.83-7.02-8.61-7.02-14.32c0-5.85,2.86-10.59,8.57-14.23
			c5.72-3.64,14.84-6.63,27.38-8.96c12.54-2.34,23.55-5.13,33.03-8.38c31.7-10.91,47.55-30.47,47.55-58.66
			c0-19.23-8.54-34.88-25.63-46.97c-17.09-12.08-39.2-18.12-66.36-18.12c-18.06,0-34.17,3.25-48.33,9.74
			c-14.16,6.49-25.21,15.33-33.13,26.5c-7.93,11.17-11.89,22.93-11.89,35.27h61.39c0.26-9.74,3.51-16.86,9.74-21.34
			c6.24-4.48,14.23-6.72,23.97-6.72c8.96,0,15.69,1.82,20.17,5.46C529.6-96.95,531.84-92.2,531.84-86.35z"/>
		<path d="M736.27-86.35c0,5.58-2.92,10.07-8.77,13.45c-5.85,3.38-16.95,6.88-33.32,10.52c-16.37,3.64-29.88,8.41-40.54,14.32
			c-10.65,5.91-18.77,13.09-24.36,21.53c-5.59,8.44-8.38,18.12-8.38,29.04c0,19.36,7.99,35.3,23.97,47.84
			c15.98,12.54,36.9,18.81,62.75,18.81c27.8,0,50.15-6.3,67.04-18.9c16.89-12.6,25.33-29.17,25.33-49.69h-65.87
			c0,16.89-8.9,25.33-26.7,25.33c-6.89,0-12.67-1.92-17.34-5.75c-4.68-3.83-7.02-8.61-7.02-14.32c0-5.85,2.86-10.59,8.57-14.23
			c5.72-3.64,14.84-6.63,27.38-8.96c12.54-2.34,23.55-5.13,33.03-8.38c31.7-10.91,47.55-30.47,47.55-58.66
			c0-19.23-8.54-34.88-25.63-46.97c-17.09-12.08-39.2-18.12-66.36-18.12c-18.06,0-34.17,3.25-48.33,9.74
			c-14.16,6.49-25.21,15.33-33.13,26.5c-7.93,11.17-11.89,22.93-11.89,35.27h61.39c0.26-9.74,3.51-16.86,9.74-21.34
			c6.24-4.48,14.23-6.72,23.97-6.72c8.96,0,15.69,1.82,20.17,5.46C734.03-96.95,736.27-92.2,736.27-86.35z"/>
	</g>
</symbol>
<g id="Baseless">
	
		<use xlink:href="#logotype"  width="1599.99" height="299.67" x="-799.99" y="-149.84" transform="matrix(1 0 0 -1 800.8627 150)" style="overflow:visible;"/>
</g>
<g id="B">
</g>
<g id="Profile_picture">
</g>
</svg>
